<?xml version="1.0" encoding="UTF-8" standalone="no"?>
<!DOCTYPE svg PUBLIC "-//W3C//DTD SVG 1.1//EN" "http://www.w3.org/Graphics/SVG/1.1/DTD/svg11.dtd">
<svg width="100%" height="100%" viewBox="0 0 1668 400" version="1.1" xmlns="http://www.w3.org/2000/svg" xmlns:xlink="http://www.w3.org/1999/xlink" xml:space="preserve" xmlns:serif="http://www.serif.com/" style="fill-rule:evenodd;clip-rule:evenodd;stroke-linejoin:round;stroke-miterlimit:2;">
    <g transform="matrix(1,0,0,1,11.5,0)">
        <g transform="matrix(128,0,0,128,340,240)">
            <path d="M0,-0.38L0,-0.625L0.17,-0.625L0.17,-0.397L0.729,-0.397L0.729,-0.625L0.898,-0.625L0.898,-0.228L0.715,-0.228L0.715,-0L0.545,-0L0.545,-0.228L0.152,-0.228C0.111,-0.228 0.075,-0.242 0.045,-0.272C0.015,-0.302 0,-0.338 0,-0.38Z" style="fill:rgb(248,182,24);fill-rule:nonzero;"/>
        </g>
        <g transform="matrix(128,0,0,128,462.5,240)">
            <path d="M0.228,-0.228L0.228,-0.397L0.898,-0.397L0.898,-0.228L0.228,-0.228ZM0,-0.152L0,-0.473C0,-0.514 0.015,-0.55 0.045,-0.58C0.075,-0.61 0.111,-0.625 0.152,-0.625L0.898,-0.625L0.898,-0.455L0.17,-0.455L0.17,-0.17L0.898,-0.17L0.898,-0L0.152,-0C0.111,-0 0.075,-0.015 0.045,-0.045C0.015,-0.075 0,-0.111 0,-0.152Z" style="fill:rgb(248,182,24);fill-rule:nonzero;"/>
        </g>
        <g transform="matrix(128,0,0,128,585,240)">
            <path d="M0.228,-0.228L0.228,-0.397L0.898,-0.397L0.898,-0.228L0.228,-0.228ZM0,-0.152L0,-0.473C0,-0.514 0.015,-0.55 0.045,-0.58C0.075,-0.61 0.111,-0.625 0.152,-0.625L0.898,-0.625L0.898,-0.455L0.17,-0.455L0.17,-0.17L0.898,-0.17L0.898,-0L0.152,-0C0.111,-0 0.075,-0.015 0.045,-0.045C0.015,-0.075 0,-0.111 0,-0.152Z" style="fill:rgb(248,182,24);fill-rule:nonzero;"/>
        </g>
        <g transform="matrix(128,0,0,128,707.5,240)">
            <path d="M0,-0L0,-0.625L0.717,-0.625C0.758,-0.625 0.794,-0.61 0.824,-0.58C0.854,-0.55 0.869,-0.514 0.869,-0.473L0.869,-0L0.699,-0L0.699,-0.455L0.17,-0.455L0.17,-0L0,-0Z" style="fill:rgb(248,182,24);fill-rule:nonzero;"/>
        </g>
        <g transform="matrix(128,0,0,128,826.25,240)">
            <path d="M0,-0L0,-0.625L0.898,-0.625L0.898,-0.152C0.898,-0.111 0.883,-0.075 0.854,-0.045C0.824,-0.015 0.788,-0 0.746,-0L0,-0ZM0.17,-0.397L0.729,-0.397L0.729,-0.455L0.17,-0.455L0.17,-0.397ZM0.17,-0.17L0.729,-0.17L0.729,-0.228L0.17,-0.228L0.17,-0.17Z" style="fill:rgb(248,182,24);fill-rule:nonzero;"/>
        </g>
        <g transform="matrix(128,0,0,128,948.75,240)">
            <path d="M0.228,-0.228L0.228,-0.397L0.898,-0.397L0.898,-0.228L0.228,-0.228ZM0,-0.152L0,-0.473C0,-0.514 0.015,-0.55 0.045,-0.58C0.075,-0.61 0.111,-0.625 0.152,-0.625L0.898,-0.625L0.898,-0.455L0.17,-0.455L0.17,-0.17L0.898,-0.17L0.898,-0L0.152,-0C0.111,-0 0.075,-0.015 0.045,-0.045C0.015,-0.075 0,-0.111 0,-0.152Z" style="fill:rgb(248,182,24);fill-rule:nonzero;"/>
        </g>
        <g transform="matrix(128,0,0,128,1071.25,240)">
            <path d="M0.364,-0L0.364,-0.17L0.534,-0.17L0.534,-0L0.364,-0ZM0,-0L0,-0.473C0,-0.514 0.015,-0.55 0.045,-0.58C0.075,-0.61 0.111,-0.625 0.152,-0.625L0.898,-0.625L0.898,-0L0.729,-0L0.729,-0.455L0.17,-0.455L0.17,-0L0,-0Z" style="fill:rgb(248,182,24);fill-rule:nonzero;"/>
        </g>
        <g transform="matrix(128,0,0,128,1193.75,240)">
            <path d="M0,-0L0,-0.625L0.717,-0.625C0.758,-0.625 0.794,-0.61 0.824,-0.58C0.854,-0.55 0.869,-0.514 0.869,-0.473L0.869,-0L0.699,-0L0.699,-0.455L0.17,-0.455L0.17,-0L0,-0Z" style="fill:rgb(248,182,24);fill-rule:nonzero;"/>
        </g>
    </g>
    <g transform="matrix(1,0,0,1.2,0,-72)">
        <g transform="matrix(0.125,0,0,0.679012,28.625,182.099)">
            <rect x="91" y="262" width="16" height="27" style="fill:rgb(95,219,246);"/>
        </g>
        <g transform="matrix(0.125,0,0,0.679012,132.625,182.099)">
            <rect x="91" y="262" width="16" height="27" style="fill:rgb(95,219,246);"/>
        </g>
        <g transform="matrix(0.125,0,0,0.679012,236.625,182.099)">
            <rect x="91" y="262" width="16" height="27" style="fill:rgb(95,219,246);"/>
        </g>
        <g transform="matrix(14.8411,0,0,0.277778,-909.832,262.778)">
            <rect x="64" y="350" width="107" height="6" style="fill:rgb(95,219,246);"/>
        </g>
    </g>
    <g id="DutchKIXcode.svg" transform="matrix(2,0,0,2,197,373)">
        <g transform="matrix(1,0,0,1,-23.5,-4.5)">
            <clipPath id="_clip1">
                <rect x="0" y="0" width="47" height="9"/>
            </clipPath>
            <g clip-path="url(#_clip1)">
                <g transform="matrix(0.2,0,0,0.2,-1.4,-1.4)">
                    <g transform="matrix(1,0,0,1.07143,0,-2.64286)">
                        <rect x="7" y="23" width="5" height="28" style="fill:rgb(95,219,246);"/>
                    </g>
                    <g transform="matrix(1,0,0,1.02273,8.88178e-16,-0.159091)">
                        <rect x="17" y="7" width="5" height="44" style="fill:rgb(95,219,246);"/>
                    </g>
                    <g transform="matrix(1,0,0,1.07143,8.88178e-16,-0.5)">
                        <rect x="27" y="7" width="5" height="28" style="fill:rgb(95,219,246);"/>
                    </g>
                    <g transform="matrix(1,0,0,1.36364,2.66454e-15,-9.36364)">
                        <rect x="37" y="23" width="5" height="11" style="fill:rgb(95,219,246);"/>
                    </g>
                    <g transform="matrix(1,0,0,1.02273,8.88178e-16,-0.159091)">
                        <rect x="47" y="7" width="5" height="44" style="fill:rgb(95,219,246);"/>
                    </g>
                    <g transform="matrix(1,0,0,1.07143,8.88178e-16,-0.5)">
                        <rect x="57" y="7" width="5" height="28" style="fill:rgb(95,219,246);"/>
                    </g>
                    <g transform="matrix(1,0,0,1.07143,2.66454e-15,-2.64286)">
                        <rect x="67" y="23" width="5" height="28" style="fill:rgb(95,219,246);"/>
                    </g>
                    <g transform="matrix(1,0,0,1.36364,2.66454e-15,-9.36364)">
                        <rect x="77" y="23" width="5" height="11" style="fill:rgb(95,219,246);"/>
                    </g>
                    <g transform="matrix(1,0,0,1.36364,-6.21725e-15,-9.36364)">
                        <rect x="87" y="23" width="5" height="11" style="fill:rgb(95,219,246);"/>
                    </g>
                    <g transform="matrix(1,0,0,1.02273,-7.99361e-15,-0.159091)">
                        <rect x="97" y="7" width="5" height="44" style="fill:rgb(95,219,246);"/>
                    </g>
                    <g transform="matrix(1,0,0,1.02273,-7.99361e-15,-0.159091)">
                        <rect x="107" y="7" width="5" height="44" style="fill:rgb(95,219,246);"/>
                    </g>
                    <g transform="matrix(1,0,0,1.36364,-6.21725e-15,-9.36364)">
                        <rect x="117" y="23" width="5" height="11" style="fill:rgb(95,219,246);"/>
                    </g>
                    <g transform="matrix(1,0,0,1.02273,-7.99361e-15,-0.159091)">
                        <rect x="127" y="7" width="5" height="44" style="fill:rgb(95,219,246);"/>
                    </g>
                    <g transform="matrix(1,0,0,1.07143,-6.21725e-15,-2.64286)">
                        <rect x="137" y="23" width="5" height="28" style="fill:rgb(95,219,246);"/>
                    </g>
                    <g transform="matrix(1,0,0,1.36364,-6.21725e-15,-9.36364)">
                        <rect x="147" y="23" width="5" height="11" style="fill:rgb(95,219,246);"/>
                    </g>
                    <g transform="matrix(1,0,0,1.07143,-7.99361e-15,-0.5)">
                        <rect x="157" y="7" width="5" height="28" style="fill:rgb(95,219,246);"/>
                    </g>
                    <g transform="matrix(1,0,0,1.07143,-2.30926e-14,-2.64286)">
                        <rect x="167" y="23" width="5" height="28" style="fill:rgb(95,219,246);"/>
                    </g>
                    <g transform="matrix(1,0,0,1.07143,-7.99361e-15,-0.5)">
                        <rect x="177" y="7" width="5" height="28" style="fill:rgb(95,219,246);"/>
                    </g>
                    <g transform="matrix(1,0,0,1.07143,-2.30926e-14,-2.64286)">
                        <rect x="187" y="23" width="5" height="28" style="fill:rgb(95,219,246);"/>
                    </g>
                    <g transform="matrix(1,0,0,1.07143,-7.99361e-15,-0.5)">
                        <rect x="197" y="7" width="5" height="28" style="fill:rgb(95,219,246);"/>
                    </g>
                    <g transform="matrix(1,0,0,1.02273,-7.99361e-15,-0.159091)">
                        <rect x="207" y="7" width="5" height="44" style="fill:rgb(95,219,246);"/>
                    </g>
                    <g transform="matrix(1,0,0,1.36364,-2.30926e-14,-9.36364)">
                        <rect x="217" y="23" width="5" height="11" style="fill:rgb(95,219,246);"/>
                    </g>
                    <g transform="matrix(1,0,0,1.02273,-7.99361e-15,-0.159091)">
                        <rect x="227" y="7" width="5" height="44" style="fill:rgb(95,219,246);"/>
                    </g>
                    <g transform="matrix(1,0,0,1.36364,-2.30926e-14,-9.36364)">
                        <rect x="237" y="23" width="5" height="11" style="fill:rgb(95,219,246);"/>
                    </g>
                </g>
            </g>
        </g>
    </g>
    <g transform="matrix(23.04,0,0,23.04,46,382)">
        <path d="M0,-0.316L0,-0.781L0.158,-0.781L0.158,-0.475L0.779,-0.475L0.779,-0.781L0.938,-0.781L0.938,-0.316L0.548,-0.316L0.548,-0L0.39,-0L0.39,-0.316L0,-0.316Z" style="fill:rgb(95,219,246);fill-rule:nonzero;"/>
    </g>
    <g transform="matrix(23.04,0,0,23.04,68.635,382)">
        <path d="M0,-0L0,-0.781L0.698,-0.781L0.938,-0.475L0.938,-0L0.779,-0L0.779,-0.421L0.621,-0.623L0.158,-0.623L0.158,-0L0,-0Z" style="fill:rgb(95,219,246);fill-rule:nonzero;"/>
    </g>
    <g transform="matrix(23.04,0,0,23.04,91.27,382)">
        <path d="M0,-0L0,-0.475L0.239,-0.781L1.104,-0.781L1.104,-0L0.945,-0L0.945,-0.623L0.713,-0.623L0.713,-0L0.555,-0L0.555,-0.623L0.316,-0.623L0.158,-0.421L0.158,-0L0,-0Z" style="fill:rgb(95,219,246);fill-rule:nonzero;"/>
    </g>
    <g transform="matrix(23.04,0,0,23.04,117.91,382)">
        <path d="M0,-0.307L0,-0.781L0.158,-0.781L0.158,-0.36L0.316,-0.158L0.938,-0.158L0.938,-0L0.239,-0L0,-0.307Z" style="fill:rgb(95,219,246);fill-rule:nonzero;"/>
    </g>
</svg>
